<svg id="ben05" xmlns="http://www.w3.org/2000/svg" width="60" height="60" viewBox="0 0 60 60">
  <path id="Caminho_9016" data-name="Caminho 9016" d="M0,0H60V60H0Z" fill="none"/>
  <path id="Caminho_9017" data-name="Caminho 9017" d="M25.481,3a30,30,0,0,0,21.25,7.5A30,30,0,0,1,25.481,48,30,30,0,0,1,4.231,10.5,30,30,0,0,0,25.481,3" transform="translate(4.519 4.5)" fill="none" stroke="#7367ef" stroke-linecap="round" stroke-linejoin="round" stroke-width="3"/>
  <path id="Caminho_9018" data-name="Caminho 9018" d="M13.5,12.5m-2.5,0A2.5,2.5,0,1,0,13.5,10,2.5,2.5,0,0,0,11,12.5" transform="translate(16.5 15)" fill="none" stroke="#7367ef" stroke-linecap="round" stroke-linejoin="round" stroke-width="3"/>
  <path id="Caminho_9019" data-name="Caminho 9019" d="M12,12v6.25" transform="translate(18 18)" fill="none" stroke="#7367ef" stroke-linecap="round" stroke-linejoin="round" stroke-width="3"/>
</svg>
