<svg id="ben02" xmlns="http://www.w3.org/2000/svg" width="60" height="60" viewBox="0 0 60 60">
  <path id="Caminho_9001" data-name="Caminho 9001" d="M0,0H60V60H0Z" fill="none"/>
  <path id="Caminho_9002" data-name="Caminho 9002" d="M3,21H48" transform="translate(4.5 31.5)" fill="none" stroke="#7367ef" stroke-linecap="round" stroke-linejoin="round" stroke-width="3"/>
  <path id="Caminho_9003" data-name="Caminho 9003" d="M9,8h2.5" transform="translate(13.5 12)" fill="none" stroke="#7367ef" stroke-linecap="round" stroke-linejoin="round" stroke-width="3"/>
  <path id="Caminho_9004" data-name="Caminho 9004" d="M9,12h2.5" transform="translate(13.5 18)" fill="none" stroke="#7367ef" stroke-linecap="round" stroke-linejoin="round" stroke-width="3"/>
  <path id="Caminho_9005" data-name="Caminho 9005" d="M9,16h2.5" transform="translate(13.5 24)" fill="none" stroke="#7367ef" stroke-linecap="round" stroke-linejoin="round" stroke-width="3"/>
  <path id="Caminho_9006" data-name="Caminho 9006" d="M14,8h2.5" transform="translate(21 12)" fill="none" stroke="#7367ef" stroke-linecap="round" stroke-linejoin="round" stroke-width="3"/>
  <path id="Caminho_9007" data-name="Caminho 9007" d="M14,12h2.5" transform="translate(21 18)" fill="none" stroke="#7367ef" stroke-linecap="round" stroke-linejoin="round" stroke-width="3"/>
  <path id="Caminho_9008" data-name="Caminho 9008" d="M14,16h2.5" transform="translate(21 24)" fill="none" stroke="#7367ef" stroke-linecap="round" stroke-linejoin="round" stroke-width="3"/>
  <path id="Caminho_9009" data-name="Caminho 9009" d="M5,48V8a5,5,0,0,1,5-5H35a5,5,0,0,1,5,5V48" transform="translate(7.5 4.5)" fill="none" stroke="#7367ef" stroke-linecap="round" stroke-linejoin="round" stroke-width="3"/>
</svg>
