<svg id="Grupo_8051" data-name="Grupo 8051" xmlns="http://www.w3.org/2000/svg" width="60" height="60" viewBox="0 0 60 60">
  <path id="Caminho_8991" data-name="Caminho 8991" d="M0,0H60V60H0Z" fill="none"/>
  <path id="Caminho_8992" data-name="Caminho 8992" d="M4,13A5,5,0,1,0,9,8a5,5,0,0,0-5,5" transform="translate(6 12)" fill="none" stroke="#7367ef" stroke-linecap="round" stroke-linejoin="round" stroke-width="3"/>
  <path id="Caminho_8993" data-name="Caminho 8993" d="M6,4V14" transform="translate(9 6)" fill="none" stroke="#7367ef" stroke-linecap="round" stroke-linejoin="round" stroke-width="3"/>
  <path id="Caminho_8994" data-name="Caminho 8994" d="M6,12V32" transform="translate(9 18)" fill="none" stroke="#7367ef" stroke-linecap="round" stroke-linejoin="round" stroke-width="3"/>
  <path id="Caminho_8995" data-name="Caminho 8995" d="M10,19a5,5,0,1,0,5-5,5,5,0,0,0-5,5" transform="translate(15 21)" fill="none" stroke="#7367ef" stroke-linecap="round" stroke-linejoin="round" stroke-width="3"/>
  <path id="Caminho_8996" data-name="Caminho 8996" d="M12,4V29" transform="translate(18 6)" fill="none" stroke="#7367ef" stroke-linecap="round" stroke-linejoin="round" stroke-width="3"/>
  <path id="Caminho_8997" data-name="Caminho 8997" d="M12,18v5" transform="translate(18 27)" fill="none" stroke="#7367ef" stroke-linecap="round" stroke-linejoin="round" stroke-width="3"/>
  <path id="Caminho_8998" data-name="Caminho 8998" d="M16,10a5,5,0,1,0,5-5,5,5,0,0,0-5,5" transform="translate(24 7.5)" fill="none" stroke="#7367ef" stroke-linecap="round" stroke-linejoin="round" stroke-width="3"/>
  <path id="Caminho_8999" data-name="Caminho 8999" d="M18,4V6.5" transform="translate(27 6)" fill="none" stroke="#7367ef" stroke-linecap="round" stroke-linejoin="round" stroke-width="3"/>
  <path id="Caminho_9000" data-name="Caminho 9000" d="M18,9V36.5" transform="translate(27 13.5)" fill="none" stroke="#7367ef" stroke-linecap="round" stroke-linejoin="round" stroke-width="3"/>
</svg>
