<svg xmlns="http://www.w3.org/2000/svg" xmlns:xlink="http://www.w3.org/1999/xlink" width="115.239" height="38.2" viewBox="0 0 115.239 38.2">
  <defs>
    <clipPath id="clip-path">
      <path id="Caminho_8888" data-name="Caminho 8888" d="M188,98.621h3.418v3.325H188Zm0,0" transform="translate(-188 -98.621)" fill="#939393"/>
    </clipPath>
    <clipPath id="clip-path-2">
      <path id="Caminho_8890" data-name="Caminho 8890" d="M164,98.621h3.418v3.325H164Zm0,0" transform="translate(-164 -98.621)" fill="#939393"/>
    </clipPath>
    <clipPath id="clip-path-3">
      <path id="Caminho_8894" data-name="Caminho 8894" d="M132.793,129h3v3.863h-3Zm0,0" transform="translate(-132.793 -129)" fill="#939393"/>
    </clipPath>
    <clipPath id="clip-path-4">
      <path id="Caminho_8897" data-name="Caminho 8897" d="M132.793,161h3v3.715h-3Zm0,0" transform="translate(-132.793 -161)" fill="#939393"/>
    </clipPath>
    <clipPath id="clip-path-5">
      <path id="Caminho_8901" data-name="Caminho 8901" d="M164,195h3.418v3.287H164Zm0,0" transform="translate(-164 -195)" fill="#939393"/>
    </clipPath>
    <clipPath id="clip-path-6">
      <path id="Caminho_8903" data-name="Caminho 8903" d="M188,195h3.418v3.287H188Zm0,0" transform="translate(-188 -195)" fill="#939393"/>
    </clipPath>
    <clipPath id="clip-path-7">
      <path id="Caminho_8907" data-name="Caminho 8907" d="M222,161h3.015v3.715H222Zm0,0" transform="translate(-222 -161)" fill="#939393"/>
    </clipPath>
    <clipPath id="clip-path-8">
      <path id="Caminho_8910" data-name="Caminho 8910" d="M222,129h3.015v3.863H222Zm0,0" transform="translate(-222 -129)" fill="#939393"/>
    </clipPath>
    <clipPath id="clip-path-9">
      <path id="Caminho_8912" data-name="Caminho 8912" d="M0,0H3.418V3.287H0ZM0,0" fill="#939393"/>
    </clipPath>
  </defs>
  <g id="nura-gray-backwhite-hor" transform="translate(-206.405 -302.999)">
    <g id="Grupo_7624" data-name="Grupo 7624" transform="translate(249.605 308.547)">
      <g id="Grupo_7618" data-name="Grupo 7618" transform="translate(0 19.895)">
        <g id="Grupo_625" data-name="Grupo 625" transform="translate(0 0)">
          <path id="Caminho_366" data-name="Caminho 366" d="M4.446-13.781a3.856,3.856,0,0,1,1.47.294,3.667,3.667,0,0,1,1.25.809l-.7.882a2.963,2.963,0,0,0-.923-.662A2.559,2.559,0,0,0,4.462-12.7a2.489,2.489,0,0,0-1.822.735A2.4,2.4,0,0,0,1.9-10.187a2.436,2.436,0,0,0,.743,1.805,2.5,2.5,0,0,0,1.822.727,2.806,2.806,0,0,0,2-.85l.719.8a4.281,4.281,0,0,1-1.3.858A3.711,3.711,0,0,1,4.4-6.527,3.66,3.66,0,0,1,1.742-7.573a3.506,3.506,0,0,1-1.07-2.606,3.406,3.406,0,0,1,1.086-2.565A3.764,3.764,0,0,1,4.446-13.781Zm0,0" transform="translate(-0.672 13.781)" fill="#939393"/>
        </g>
      </g>
      <g id="Grupo_7619" data-name="Grupo 7619" transform="translate(0 0)">
        <g id="Grupo_614" data-name="Grupo 614" transform="translate(0 0)">
          <g id="Grupo_613" data-name="Grupo 613">
            <path id="Caminho_362" data-name="Caminho 362" d="M18.554-15.2H14.82L7.158-25.447V-15.2H3.188V-31.844H6.921l7.687,10.277V-31.844h3.946Zm0,0" transform="translate(-3.188 31.844)" fill="#939393"/>
          </g>
        </g>
        <g id="Grupo_617" data-name="Grupo 617" transform="translate(18.412 0)">
          <g id="Grupo_616" data-name="Grupo 616">
            <path id="Caminho_363" data-name="Caminho 363" d="M17.909-31.844v9.656a6.888,6.888,0,0,1-2.042,5.245,7.734,7.734,0,0,1-5.547,1.936,7.9,7.9,0,0,1-5.6-1.936,6.821,6.821,0,0,1-2.075-5.245v-9.656H6.872v9.656a3.634,3.634,0,0,0,.964,2.655,3.36,3.36,0,0,0,2.508.98,3.194,3.194,0,0,0,2.443-.972,3.735,3.735,0,0,0,.915-2.663v-9.656Zm0,0" transform="translate(-2.641 31.844)" fill="#939393"/>
          </g>
        </g>
        <g id="Grupo_620" data-name="Grupo 620" transform="translate(36.73 0)">
          <g id="Grupo_619" data-name="Grupo 619">
            <path id="Caminho_364" data-name="Caminho 364" d="M13.227-15.2l-2.475-4.689H7.419V-15.2H3.188V-31.844H10.63a7.758,7.758,0,0,1,5.114,1.511,5.258,5.258,0,0,1,1.814,4.289q0,3.857-3.023,5.351l3.5,5.5ZM7.419-23.209h3.21a3.084,3.084,0,0,0,2.14-.686,2.562,2.562,0,0,0,.768-2,2.442,2.442,0,0,0-.768-1.952,3.14,3.14,0,0,0-2.14-.67H7.419Zm0,0" transform="translate(-3.188 31.844)" fill="#939393"/>
          </g>
        </g>
        <g id="Grupo_623" data-name="Grupo 623" transform="translate(52.164 0)">
          <g id="Grupo_622" data-name="Grupo 622">
            <path id="Caminho_365" data-name="Caminho 365" d="M12.616-18.267H5.337L4.12-15.2H-.234L6.954-31.844h4.354L18.326-15.2H13.808Zm-1.242-3.21L9-27.637l-2.426,6.16Zm0,0" transform="translate(0.234 31.844)" fill="#939393"/>
          </g>
        </g>
        <g id="Grupo_629" data-name="Grupo 629" transform="translate(8.273 19.895)">
          <g id="Grupo_628" data-name="Grupo 628" transform="translate(0 0)">
            <path id="Caminho_367" data-name="Caminho 367" d="M1.767-12.744a3.783,3.783,0,0,1,2.7-1.037,3.79,3.79,0,0,1,2.7,1.037,3.4,3.4,0,0,1,1.1,2.581,3.44,3.44,0,0,1-1.1,2.59,3.762,3.762,0,0,1-2.7,1.046,3.755,3.755,0,0,1-2.7-1.046,3.447,3.447,0,0,1-1.095-2.59A3.408,3.408,0,0,1,1.767-12.744Zm2.72.049a2.534,2.534,0,0,0-1.83.735,2.391,2.391,0,0,0-.76,1.8,2.428,2.428,0,0,0,.76,1.805,2.525,2.525,0,0,0,1.822.743,2.459,2.459,0,0,0,1.805-.743,2.444,2.444,0,0,0,.752-1.805,2.407,2.407,0,0,0-.752-1.8A2.463,2.463,0,0,0,4.487-12.695Zm0,0" transform="translate(-0.672 13.781)" fill="#939393"/>
          </g>
        </g>
        <g id="Grupo_632" data-name="Grupo 632" transform="translate(21.138 19.919)">
          <g id="Grupo_631" data-name="Grupo 631">
            <path id="Caminho_368" data-name="Caminho 368" d="M8.022-6.554H6.837L3.014-11.7v5.147H1.8v-7.181H2.99L6.837-8.571v-5.163H8.022Zm0,0" transform="translate(-1.797 13.734)" fill="#939393"/>
          </g>
        </g>
        <g id="Grupo_635" data-name="Grupo 635" transform="translate(33.23 19.919)">
          <g id="Grupo_634" data-name="Grupo 634">
            <path id="Caminho_369" data-name="Caminho 369" d="M8.022-6.554H6.837L3.014-11.7v5.147H1.8v-7.181H2.99L6.837-8.571v-5.163H8.022Zm0,0" transform="translate(-1.797 13.734)" fill="#939393"/>
          </g>
        </g>
        <g id="Grupo_638" data-name="Grupo 638" transform="translate(45.322 19.919)">
          <g id="Grupo_637" data-name="Grupo 637">
            <path id="Caminho_370" data-name="Caminho 370" d="M6.927-12.64H3.014V-10.7h3.5v1.086h-3.5V-7.64H7.05v1.086H1.8v-7.181h5.13Zm0,0" transform="translate(-1.797 13.734)" fill="#939393"/>
          </g>
        </g>
        <g id="Grupo_641" data-name="Grupo 641" transform="translate(55.431 19.895)">
          <g id="Grupo_640" data-name="Grupo 640" transform="translate(0 0)">
            <path id="Caminho_371" data-name="Caminho 371" d="M4.446-13.781a3.856,3.856,0,0,1,1.47.294,3.667,3.667,0,0,1,1.25.809l-.7.882a2.963,2.963,0,0,0-.923-.662A2.559,2.559,0,0,0,4.462-12.7a2.489,2.489,0,0,0-1.822.735A2.4,2.4,0,0,0,1.9-10.187a2.436,2.436,0,0,0,.743,1.805,2.5,2.5,0,0,0,1.822.727,2.806,2.806,0,0,0,2-.85l.719.8a4.281,4.281,0,0,1-1.3.858A3.711,3.711,0,0,1,4.4-6.527,3.66,3.66,0,0,1,1.742-7.573a3.506,3.506,0,0,1-1.07-2.606,3.406,3.406,0,0,1,1.086-2.565A3.764,3.764,0,0,1,4.446-13.781Zm0,0" transform="translate(-0.672 13.781)" fill="#939393"/>
          </g>
        </g>
        <g id="Grupo_644" data-name="Grupo 644" transform="translate(66.287 19.919)">
          <g id="Grupo_643" data-name="Grupo 643">
            <path id="Caminho_372" data-name="Caminho 372" d="M5.923-12.64H3.652v6.086H2.443V-12.64H.172v-1.095H5.923Zm0,0" transform="translate(-0.172 13.734)" fill="#939393"/>
          </g>
        </g>
      </g>
    </g>
    <g id="Grupo_7668" data-name="Grupo 7668" transform="translate(206.405 302.999)">
      <g id="Grupo_7662" data-name="Grupo 7662" transform="translate(0 0)">
        <g id="Grupo_7588" data-name="Grupo 7588">
          <path id="Subtração_9" data-name="Subtração 9" d="M13.661,38.2a3.842,3.842,0,0,1-3.727-4.851,3.816,3.816,0,0,1,1.786-2.323,3.937,3.937,0,0,1,1.971-.534,3.743,3.743,0,0,1,.964.127A3.953,3.953,0,0,1,17,32.423a4.682,4.682,0,0,1,.476,1.356c.07,0,.143,0,.221.009l.015,0h.012c.093.006.189.012.294.012a15.878,15.878,0,0,0,7.834-2.078,16.257,16.257,0,0,0,5.192-4.786l-3.432-2.01a11.525,11.525,0,0,0,1.118-1.969l4.46,2.623a1.114,1.114,0,0,1,.407,1.535,18.692,18.692,0,0,1-6.617,6.572,18.06,18.06,0,0,1-8.962,2.371c-.232,0-.52,0-.858-.024h-.046A3.84,3.84,0,0,1,13.661,38.2Zm-.009-5.446a1.526,1.526,0,0,0-.781.211,1.554,1.554,0,0,0-.745.972,1.533,1.533,0,0,0,.157,1.2,1.563,1.563,0,0,0,.972.745,1.512,1.512,0,0,0,.4.054,1.621,1.621,0,0,0,.8-.213,1.564,1.564,0,0,0,.747-.95,1.6,1.6,0,0,0-1.545-2.017ZM3.307,27.45a1.113,1.113,0,0,1-.981-.581H2.3A19.148,19.148,0,0,1,.588,22.557a17.973,17.973,0,0,1,.248-9.98A18.279,18.279,0,0,1,2.891,8.24a3.727,3.727,0,0,1-.655-2.165,3.737,3.737,0,0,1,1.129-2.71,3.743,3.743,0,0,1,2.71-1.129A3.771,3.771,0,0,1,8.808,3.365a3.849,3.849,0,0,1,0,5.442A3.9,3.9,0,0,1,6.075,9.934a3.757,3.757,0,0,1-1.4-.27A15.586,15.586,0,0,0,3,13.255a15.942,15.942,0,0,0-.747,4.764,15.383,15.383,0,0,0,.519,3.972,16.509,16.509,0,0,0,.995,2.753l3.7-2.057a11.74,11.74,0,0,0,1.066,1.99L3.861,27.3A1.106,1.106,0,0,1,3.307,27.45ZM6.075,4.5a1.488,1.488,0,0,0-1.106.474A1.5,1.5,0,0,0,4.5,6.075,1.581,1.581,0,0,0,4.969,7.2a1.513,1.513,0,0,0,1.106.474,1.617,1.617,0,0,0,1.6-1.6A1.5,1.5,0,0,0,7.2,4.969,1.581,1.581,0,0,0,6.075,4.5ZM34.367,17.513A4.025,4.025,0,0,1,32.425,17a3.949,3.949,0,0,1-1.807-2.347,3.824,3.824,0,0,1,.407-2.914v-.022a3.5,3.5,0,0,1,.924-1.083A15.791,15.791,0,0,0,19.172,2.3V6.537c-.321-.028-.652-.042-.985-.042a11.593,11.593,0,0,0-1.3.073V1.13A1.132,1.132,0,0,1,18.02,0,18.077,18.077,0,0,1,34.073,9.822c.109-.009.219-.014.324-.014a3.6,3.6,0,0,1,1.866.51h.023a3.874,3.874,0,0,1,1.784,2.349,3.86,3.86,0,0,1-2.733,4.719A3.738,3.738,0,0,1,34.367,17.513Zm-.013-5.442a1.666,1.666,0,0,0-.417.054,1.588,1.588,0,0,0-1.129,1.942,1.591,1.591,0,0,0,1.547,1.183,1.692,1.692,0,0,0,.416-.053,1.6,1.6,0,0,0,1.108-1.942,1.563,1.563,0,0,0-.745-.972A1.519,1.519,0,0,0,34.355,12.071Z" fill="#939393"/>
        </g>
      </g>
      <g id="Grupo_7663" data-name="Grupo 7663" transform="translate(9.947 9.248)">
        <g id="Simple_Data_Connection_Technology_Logo" data-name="Simple Data Connection Technology Logo" transform="translate(0 0)">
          <path id="Caminho_8881" data-name="Caminho 8881" d="M166.272,130.337v-3.344a.828.828,0,0,1-.289-.1.809.809,0,0,1-.248-.219q-.757.413-1.524.854t-1.5.89a.826.826,0,0,1,.01.625l2.9,1.672A.982.982,0,0,1,166.272,130.337Zm0,0" transform="translate(-158.262 -122.504)" fill="#939393" fill-rule="evenodd"/>
          <path id="Caminho_8882" data-name="Caminho 8882" d="M188.391,127v3.344a.981.981,0,0,1,.654.377l2.9-1.672a.826.826,0,0,1,.009-.625q-.737-.448-1.5-.89t-1.524-.854A.833.833,0,0,1,188.391,127Zm0,0" transform="translate(-180.129 -122.507)" fill="#939393" fill-rule="evenodd"/>
          <path id="Caminho_8883" data-name="Caminho 8883" d="M161.574,145.754l-2.9-1.672a.827.827,0,0,1-.547.3q-.021.862-.021,1.745t.021,1.744a.833.833,0,0,1,.314.105.823.823,0,0,1,.233.2l2.9-1.672A.978.978,0,0,1,161.574,145.754Zm0,0" transform="translate(-154.344 -137.327)" fill="#939393" fill-rule="evenodd"/>
          <path id="Caminho_8884" data-name="Caminho 8884" d="M165.621,161.871l-2.9,1.672a.825.825,0,0,1-.009.625q.737.448,1.5.89t1.524.854a.83.83,0,0,1,.537-.32v-3.344a.987.987,0,0,1-.655-.377Zm0,0" transform="translate(-158.265 -152.472)" fill="#939393" fill-rule="evenodd"/>
          <path id="Caminho_8885" data-name="Caminho 8885" d="M188.391,162.244v3.345a.836.836,0,0,1,.537.32q.757-.412,1.524-.854l.008,0q.762-.44,1.5-.886a.827.827,0,0,1-.01-.626l-2.9-1.672A.978.978,0,0,1,188.391,162.244Zm0,0" transform="translate(-180.129 -152.469)" fill="#939393" fill-rule="evenodd"/>
          <path id="Caminho_8886" data-name="Caminho 8886" d="M193.637,146.508l2.9,1.672a.83.83,0,0,1,.547-.3q.021-.861.021-1.744t-.021-1.745a.831.831,0,0,1-.547-.3l-2.9,1.672A.976.976,0,0,1,193.637,146.508Zm0,0" transform="translate(-184.596 -137.327)" fill="#939393" fill-rule="evenodd"/>
          <g id="Grupo_7607" data-name="Grupo 7607" transform="translate(8.204)" clip-path="url(#clip-path)">
            <path id="Caminho_8887" data-name="Caminho 8887" d="M188.931,101.8c.942-.485,1.868-.933,2.768-1.343a.665.665,0,0,1-.013-.428c-.942-.519-1.883-.989-2.816-1.408a.773.773,0,0,1-.482.266v2.584a.839.839,0,0,1,.543.329Zm0,0" transform="translate(-188.329 -98.624)" fill="#939393" fill-rule="evenodd"/>
          </g>
          <g id="Grupo_7608" data-name="Grupo 7608" transform="translate(4.637)" clip-path="url(#clip-path-2)">
            <path id="Caminho_8889" data-name="Caminho 8889" d="M167.729,101.472V98.888a.77.77,0,0,1-.482-.266c-.933.419-1.875.889-2.816,1.408a.663.663,0,0,1-.013.428c.9.41,1.826.858,2.768,1.343A.829.829,0,0,1,167.729,101.472Zm0,0" transform="translate(-164.356 -98.621)" fill="#939393" fill-rule="evenodd"/>
          </g>
          <path id="Caminho_8891" data-name="Caminho 8891" d="M162.15,113.8c-.945-.487-1.874-.936-2.776-1.347a.837.837,0,0,1-.514.3c-.1.986-.17,2.012-.22,3.073a.838.838,0,0,1,.473.276q.739-.45,1.509-.894t1.531-.858A.828.828,0,0,1,162.15,113.8Zm0,0" transform="translate(-154.8 -110.394)" fill="#939393" fill-rule="evenodd"/>
          <path id="Caminho_8892" data-name="Caminho 8892" d="M140.92,116.333c.051-1.057.124-2.082.219-3.065a.663.663,0,0,1-.379-.2c-.921.553-1.8,1.132-2.629,1.73a.769.769,0,0,1-.009.551l2.242,1.292A.832.832,0,0,1,140.92,116.333Zm0,0" transform="translate(-137.329 -110.92)" fill="#939393" fill-rule="evenodd"/>
          <g id="Grupo_7609" data-name="Grupo 7609" transform="translate(0 4.514)" clip-path="url(#clip-path-3)">
            <path id="Caminho_8893" data-name="Caminho 8893" d="M135.744,131.163l-2.242-1.292a.771.771,0,0,1-.472.284c-.1,1.016-.167,2.065-.186,3.138a.667.667,0,0,1,.365.226c.805-.573,1.657-1.149,2.549-1.722A.828.828,0,0,1,135.744,131.163Zm0,0" transform="translate(-132.836 -129.742)" fill="#939393" fill-rule="evenodd"/>
          </g>
          <path id="Caminho_8895" data-name="Caminho 8895" d="M138.712,144.262q-1.342.861-2.556,1.726a.831.831,0,0,1,0,.592c.807.575,1.661,1.153,2.556,1.727a.831.831,0,0,1,.476-.27q-.02-.865-.021-1.752t.022-1.752a.836.836,0,0,1-.477-.27Zm0,0" transform="translate(-135.656 -137.48)" fill="#939393" fill-rule="evenodd"/>
          <g id="Grupo_7610" data-name="Grupo 7610" transform="translate(0 9.269)" clip-path="url(#clip-path-4)">
            <path id="Caminho_8896" data-name="Caminho 8896" d="M135.758,163.046q-1.338-.858-2.549-1.722a.659.659,0,0,1-.365.226c.02,1.073.083,2.122.186,3.138a.77.77,0,0,1,.472.283l2.242-1.292A.826.826,0,0,1,135.758,163.046Zm0,0" transform="translate(-132.836 -161.276)" fill="#939393" fill-rule="evenodd"/>
          </g>
          <path id="Caminho_8898" data-name="Caminho 8898" d="M140.363,178.637l-2.242,1.292a.769.769,0,0,1,.01.55q1.245.9,2.629,1.73a.664.664,0,0,1,.378-.2c-.095-.983-.168-2.007-.219-3.064a.817.817,0,0,1-.325-.106A.827.827,0,0,1,140.363,178.637Zm0,0" transform="translate(-137.329 -166.747)" fill="#939393" fill-rule="evenodd"/>
          <path id="Caminho_8899" data-name="Caminho 8899" d="M158.641,179.042c.05,1.061.125,2.088.22,3.074a.818.818,0,0,1,.284.1.829.829,0,0,1,.229.2c.9-.41,1.831-.86,2.776-1.347a.824.824,0,0,1,0-.546q-.761-.415-1.531-.858t-1.51-.894A.83.83,0,0,1,158.641,179.042Zm0,0" transform="translate(-154.8 -166.857)" fill="#939393" fill-rule="evenodd"/>
          <g id="Grupo_7611" data-name="Grupo 7611" transform="translate(4.637 14.322)" clip-path="url(#clip-path-5)">
            <path id="Caminho_8900" data-name="Caminho 8900" d="M167.186,195.727c-.942.485-1.868.933-2.768,1.343a.664.664,0,0,1,.013.428c.941.519,1.883.989,2.816,1.408a.772.772,0,0,1,.481-.266v-2.584a.814.814,0,0,1-.29-.1A.826.826,0,0,1,167.186,195.727Zm0,0" transform="translate(-164.356 -195.619)" fill="#939393" fill-rule="evenodd"/>
          </g>
          <g id="Grupo_7612" data-name="Grupo 7612" transform="translate(8.204 14.322)" clip-path="url(#clip-path-6)">
            <path id="Caminho_8902" data-name="Caminho 8902" d="M188.391,196.056v2.585a.769.769,0,0,1,.482.266c.933-.419,1.875-.889,2.816-1.408a.665.665,0,0,1,.013-.428c-.9-.409-1.825-.858-2.768-1.343A.83.83,0,0,1,188.391,196.056Zm0,0" transform="translate(-188.333 -195.619)" fill="#939393" fill-rule="evenodd"/>
          </g>
          <path id="Caminho_8904" data-name="Caminho 8904" d="M192.808,181.06c.946.487,1.874.936,2.776,1.347a.828.828,0,0,1,.514-.3c.1-.986.169-2.013.22-3.074a.81.81,0,0,1-.256-.1.835.835,0,0,1-.217-.181q-.739.451-1.51.9l-.006,0q-.766.441-1.524.854A.82.82,0,0,1,192.808,181.06Zm0,0" transform="translate(-183.887 -166.853)" fill="#939393" fill-rule="evenodd"/>
          <path id="Caminho_8905" data-name="Caminho 8905" d="M216.879,178.939c-.051,1.057-.124,2.082-.219,3.064a.662.662,0,0,1,.379.2c.921-.554,1.8-1.133,2.629-1.73a.769.769,0,0,1,.01-.55l-2.242-1.293A.83.83,0,0,1,216.879,178.939Zm0,0" transform="translate(-204.198 -166.744)" fill="#939393" fill-rule="evenodd"/>
          <g id="Grupo_7613" data-name="Grupo 7613" transform="translate(13.256 9.269)" clip-path="url(#clip-path-7)">
            <path id="Caminho_8906" data-name="Caminho 8906" d="M222.65,163.68l2.242,1.292a.77.77,0,0,1,.472-.283c.1-1.016.167-2.065.186-3.138a.666.666,0,0,1-.365-.226c-.805.574-1.657,1.149-2.549,1.721A.829.829,0,0,1,222.65,163.68Zm0,0" transform="translate(-222.542 -161.276)" fill="#939393" fill-rule="evenodd"/>
          </g>
          <path id="Caminho_8908" data-name="Caminho 8908" d="M219,148.307q1.342-.861,2.556-1.727a.827.827,0,0,1,0-.591q-1.211-.863-2.556-1.727a.827.827,0,0,1-.475.27q.021.865.021,1.753t-.022,1.752a.835.835,0,0,1,.477.27Zm0,0" transform="translate(-205.787 -137.48)" fill="#939393" fill-rule="evenodd"/>
          <g id="Grupo_7614" data-name="Grupo 7614" transform="translate(13.256 4.514)" clip-path="url(#clip-path-8)">
            <path id="Caminho_8909" data-name="Caminho 8909" d="M222.637,131.8q1.337.859,2.549,1.721a.661.661,0,0,1,.364-.225c-.02-1.073-.083-2.122-.186-3.138a.771.771,0,0,1-.472-.284l-2.242,1.293A.829.829,0,0,1,222.637,131.8Zm0,0" transform="translate(-222.542 -129.742)" fill="#939393" fill-rule="evenodd"/>
          </g>
        </g>
        <g id="Grupo_7615" data-name="Grupo 7615" transform="translate(12.88 5.987) rotate(-120)" clip-path="url(#clip-path-9)">
          <path id="Caminho_8911" data-name="Caminho 8911" d="M0,.329V2.913a.769.769,0,0,1,.482.266c.933-.419,1.875-.889,2.816-1.408a.665.665,0,0,1,.013-.428C2.411.934,1.485.485.543,0A.83.83,0,0,1,0,.329Zm0,0" transform="translate(0.058 0.108)" fill="#939393" fill-rule="evenodd"/>
        </g>
        <path id="Caminho_8913" data-name="Caminho 8913" d="M0,2.3c.946.487,1.874.936,2.776,1.347a.828.828,0,0,1,.514-.3c.1-.986.169-2.013.22-3.074a.811.811,0,0,1-.256-.1A.836.836,0,0,1,3.04,0Q2.3.451,1.531.895L1.524.9Q.758,1.34,0,1.752A.82.82,0,0,1,0,2.3Zm0,0" transform="translate(10.433 6.575) rotate(-120)" fill="#939393" fill-rule="evenodd"/>
      </g>
    </g>
  </g>
</svg>
