<svg xmlns="http://www.w3.org/2000/svg" xmlns:xlink="http://www.w3.org/1999/xlink" width="80.674" height="89.588" viewBox="0 0 80.674 89.588">
  <defs>
    <linearGradient id="linear-gradient" x1="-0.428" y1="-1.757" x2="-0.359" y2="-2.024" gradientUnits="objectBoundingBox">
      <stop offset="0" stop-color="#7367f0"/>
      <stop offset="0.008" stop-color="#646260"/>
      <stop offset="0.016" stop-color="#646260"/>
      <stop offset="0.023" stop-color="#656361"/>
      <stop offset="0.031" stop-color="#666462"/>
      <stop offset="0.039" stop-color="#666462"/>
      <stop offset="0.047" stop-color="#676563"/>
      <stop offset="0.055" stop-color="#676563"/>
      <stop offset="0.063" stop-color="#686664"/>
      <stop offset="0.07" stop-color="#686664"/>
      <stop offset="0.078" stop-color="#696765"/>
      <stop offset="0.086" stop-color="#6a6865"/>
      <stop offset="0.094" stop-color="#6a6866"/>
      <stop offset="0.102" stop-color="#6b6967"/>
      <stop offset="0.109" stop-color="#6b6967"/>
      <stop offset="0.117" stop-color="#6c6a68"/>
      <stop offset="0.125" stop-color="#6c6a68"/>
      <stop offset="0.133" stop-color="#6d6b69"/>
      <stop offset="0.141" stop-color="#6e6b69"/>
      <stop offset="0.148" stop-color="#6e6c6a"/>
      <stop offset="0.156" stop-color="#6f6d6b"/>
      <stop offset="0.164" stop-color="#6f6d6b"/>
      <stop offset="0.172" stop-color="#706e6c"/>
      <stop offset="0.18" stop-color="#706e6c"/>
      <stop offset="0.188" stop-color="#716f6d"/>
      <stop offset="0.195" stop-color="#726f6d"/>
      <stop offset="0.203" stop-color="#72706e"/>
      <stop offset="0.205" stop-color="#73706e"/>
      <stop offset="0.211" stop-color="#73716f"/>
      <stop offset="0.219" stop-color="#73716f"/>
      <stop offset="0.227" stop-color="#747270"/>
      <stop offset="0.234" stop-color="#747270"/>
      <stop offset="0.242" stop-color="#757371"/>
      <stop offset="0.25" stop-color="#767371"/>
      <stop offset="0.258" stop-color="#767472"/>
      <stop offset="0.266" stop-color="#777472"/>
      <stop offset="0.273" stop-color="#777573"/>
      <stop offset="0.281" stop-color="#787673"/>
      <stop offset="0.289" stop-color="#797674"/>
      <stop offset="0.297" stop-color="#797775"/>
      <stop offset="0.305" stop-color="#7a7775"/>
      <stop offset="0.313" stop-color="#7a7876"/>
      <stop offset="0.32" stop-color="#7b7876"/>
      <stop offset="0.328" stop-color="#7b7977"/>
      <stop offset="0.336" stop-color="#7c7977"/>
      <stop offset="0.344" stop-color="#7d7a78"/>
      <stop offset="0.352" stop-color="#7d7b79"/>
      <stop offset="0.359" stop-color="#7e7b79"/>
      <stop offset="0.367" stop-color="#7e7c7a"/>
      <stop offset="0.375" stop-color="#7f7c7a"/>
      <stop offset="0.383" stop-color="#7f7d7b"/>
      <stop offset="0.391" stop-color="#807d7b"/>
      <stop offset="0.398" stop-color="#817e7c"/>
      <stop offset="0.406" stop-color="#817e7c"/>
      <stop offset="0.414" stop-color="#827f7d"/>
      <stop offset="0.422" stop-color="#82807e"/>
      <stop offset="0.43" stop-color="#83807e"/>
      <stop offset="0.438" stop-color="#83817f"/>
      <stop offset="0.445" stop-color="#84817f"/>
      <stop offset="0.453" stop-color="#858280"/>
      <stop offset="0.461" stop-color="#858280"/>
      <stop offset="0.469" stop-color="#868381"/>
      <stop offset="0.473" stop-color="#878482"/>
      <stop offset="0.477" stop-color="#878583"/>
      <stop offset="0.48" stop-color="#888583"/>
      <stop offset="0.484" stop-color="#898684"/>
      <stop offset="0.488" stop-color="#898684"/>
      <stop offset="0.492" stop-color="#8a8785"/>
      <stop offset="0.496" stop-color="#8a8885"/>
      <stop offset="0.5" stop-color="#8b8886"/>
      <stop offset="0.504" stop-color="#8c8987"/>
      <stop offset="0.508" stop-color="#8c8987"/>
      <stop offset="0.512" stop-color="#8d8a88"/>
      <stop offset="0.516" stop-color="#8d8a88"/>
      <stop offset="0.52" stop-color="#8e8b89"/>
      <stop offset="0.523" stop-color="#8f8c89"/>
      <stop offset="0.527" stop-color="#8f8c8a"/>
      <stop offset="0.531" stop-color="#908d8b"/>
      <stop offset="0.535" stop-color="#908d8b"/>
      <stop offset="0.539" stop-color="#918e8c"/>
      <stop offset="0.543" stop-color="#928f8c"/>
      <stop offset="0.547" stop-color="#928f8d"/>
      <stop offset="0.551" stop-color="#93908d"/>
      <stop offset="0.555" stop-color="#94908e"/>
      <stop offset="0.559" stop-color="#94918f"/>
      <stop offset="0.563" stop-color="#95918f"/>
      <stop offset="0.566" stop-color="#959290"/>
      <stop offset="0.57" stop-color="#969390"/>
      <stop offset="0.574" stop-color="#979391"/>
      <stop offset="0.578" stop-color="#979492"/>
      <stop offset="0.582" stop-color="#989492"/>
      <stop offset="0.586" stop-color="#989593"/>
      <stop offset="0.59" stop-color="#999693"/>
      <stop offset="0.594" stop-color="#9a9694"/>
      <stop offset="0.598" stop-color="#9a9794"/>
      <stop offset="0.602" stop-color="#9b9795"/>
      <stop offset="0.605" stop-color="#9b9896"/>
      <stop offset="0.609" stop-color="#9c9896"/>
      <stop offset="0.613" stop-color="#9d9997"/>
      <stop offset="0.617" stop-color="#9d9a97"/>
      <stop offset="0.621" stop-color="#9e9a98"/>
      <stop offset="0.625" stop-color="#9e9b98"/>
      <stop offset="0.629" stop-color="#9f9b99"/>
      <stop offset="0.633" stop-color="#a09c9a"/>
      <stop offset="0.637" stop-color="#a09d9a"/>
      <stop offset="0.641" stop-color="#a19d9b"/>
      <stop offset="0.645" stop-color="#a19e9b"/>
      <stop offset="0.648" stop-color="#a29e9c"/>
      <stop offset="0.652" stop-color="#a39f9c"/>
      <stop offset="0.656" stop-color="#a3a09d"/>
      <stop offset="0.66" stop-color="#a4a09e"/>
      <stop offset="0.664" stop-color="#a4a19e"/>
      <stop offset="0.668" stop-color="#a5a19f"/>
      <stop offset="0.672" stop-color="#a6a29f"/>
      <stop offset="0.676" stop-color="#a6a2a0"/>
      <stop offset="0.68" stop-color="#a7a3a1"/>
      <stop offset="0.684" stop-color="#a7a4a1"/>
      <stop offset="0.688" stop-color="#a8a4a2"/>
      <stop offset="0.691" stop-color="#a9a5a2"/>
      <stop offset="0.695" stop-color="#a9a5a3"/>
      <stop offset="0.699" stop-color="#aaa6a3"/>
      <stop offset="0.703" stop-color="#aaa7a4"/>
      <stop offset="0.707" stop-color="#aba7a5"/>
      <stop offset="0.711" stop-color="#aca8a5"/>
      <stop offset="0.715" stop-color="#aca8a6"/>
      <stop offset="0.719" stop-color="#ada9a6"/>
      <stop offset="0.723" stop-color="#aea9a7"/>
      <stop offset="0.727" stop-color="#aeaaa7"/>
      <stop offset="0.73" stop-color="#afaba8"/>
      <stop offset="0.734" stop-color="#afaba9"/>
      <stop offset="0.738" stop-color="#b0aca9"/>
      <stop offset="0.742" stop-color="#b1acaa"/>
      <stop offset="0.746" stop-color="#b1adaa"/>
      <stop offset="0.75" stop-color="#b2aeab"/>
      <stop offset="0.754" stop-color="#b2aeab"/>
      <stop offset="0.758" stop-color="#b3afac"/>
      <stop offset="0.762" stop-color="#b4afad"/>
      <stop offset="0.766" stop-color="#b4b0ad"/>
      <stop offset="0.77" stop-color="#b5b0ae"/>
      <stop offset="0.773" stop-color="#b5b1ae"/>
      <stop offset="0.777" stop-color="#b6b2af"/>
      <stop offset="0.781" stop-color="#b7b2b0"/>
      <stop offset="0.785" stop-color="#b7b3b0"/>
      <stop offset="0.789" stop-color="#b8b3b1"/>
      <stop offset="0.793" stop-color="#b8b4b1"/>
      <stop offset="0.797" stop-color="#b9b5b2"/>
      <stop offset="0.801" stop-color="#bab5b2"/>
      <stop offset="0.805" stop-color="#bab6b3"/>
      <stop offset="0.809" stop-color="#bbb6b4"/>
      <stop offset="0.813" stop-color="#bbb7b4"/>
      <stop offset="0.816" stop-color="#bcb8b5"/>
      <stop offset="0.82" stop-color="#bdb8b5"/>
      <stop offset="0.824" stop-color="#bdb9b6"/>
      <stop offset="0.828" stop-color="#beb9b6"/>
      <stop offset="0.832" stop-color="#bebab7"/>
      <stop offset="0.836" stop-color="#bfbab8"/>
      <stop offset="0.84" stop-color="#c0bbb8"/>
      <stop offset="0.844" stop-color="#c0bcb9"/>
      <stop offset="0.848" stop-color="#c1bcb9"/>
      <stop offset="0.852" stop-color="#c1bdba"/>
      <stop offset="0.855" stop-color="#c2bdbb"/>
      <stop offset="0.859" stop-color="#c3bebb"/>
      <stop offset="0.863" stop-color="#c3bfbc"/>
      <stop offset="0.867" stop-color="#c4bfbc"/>
      <stop offset="0.871" stop-color="#c5c0bd"/>
      <stop offset="0.875" stop-color="#c5c0bd"/>
      <stop offset="0.879" stop-color="#c6c1be"/>
      <stop offset="0.883" stop-color="#c6c1bf"/>
      <stop offset="0.887" stop-color="#c7c2bf"/>
      <stop offset="0.891" stop-color="#c8c3c0"/>
      <stop offset="0.895" stop-color="#c8c3c0"/>
      <stop offset="0.898" stop-color="#c9c4c1"/>
      <stop offset="0.902" stop-color="#c9c4c1"/>
      <stop offset="0.906" stop-color="#cac5c2"/>
      <stop offset="0.91" stop-color="#cbc6c3"/>
      <stop offset="0.914" stop-color="#cbc6c3"/>
      <stop offset="0.918" stop-color="#ccc7c4"/>
      <stop offset="0.922" stop-color="#ccc7c4"/>
      <stop offset="0.926" stop-color="#cdc8c5"/>
      <stop offset="0.93" stop-color="#cec9c5"/>
      <stop offset="0.934" stop-color="#cec9c6"/>
      <stop offset="0.938" stop-color="#cfcac7"/>
      <stop offset="1" stop-color="#cfcac7"/>
    </linearGradient>
    <filter id="Subtração_6" x="7.415" y="0" width="65.488" height="65.487" filterUnits="userSpaceOnUse">
      <feOffset dy="3" input="SourceAlpha"/>
      <feGaussianBlur stdDeviation="3" result="blur"/>
      <feFlood flood-opacity="0.161"/>
      <feComposite operator="in" in2="blur"/>
      <feComposite in="SourceGraphic"/>
    </filter>
    <clipPath id="clip-path">
      <path id="Caminho_8888" data-name="Caminho 8888" d="M188,98.621h4.249v4.134H188Zm0,0" transform="translate(-188 -98.621)" fill="#7367f0"/>
    </clipPath>
    <clipPath id="clip-path-2">
      <path id="Caminho_8890" data-name="Caminho 8890" d="M164,98.621h4.249v4.134H164Zm0,0" transform="translate(-164 -98.621)" fill="#7367f0"/>
    </clipPath>
    <clipPath id="clip-path-3">
      <path id="Caminho_8894" data-name="Caminho 8894" d="M132.793,129h3.733v4.8h-3.733Zm0,0" transform="translate(-132.793 -129)" fill="#7367f0"/>
    </clipPath>
    <clipPath id="clip-path-4">
      <path id="Caminho_8897" data-name="Caminho 8897" d="M132.793,161h3.733v4.618h-3.733Zm0,0" transform="translate(-132.793 -161)" fill="#7367f0"/>
    </clipPath>
    <clipPath id="clip-path-5">
      <path id="Caminho_8901" data-name="Caminho 8901" d="M164,195h4.249v4.086H164Zm0,0" transform="translate(-164 -195)" fill="#7367f0"/>
    </clipPath>
    <clipPath id="clip-path-6">
      <path id="Caminho_8903" data-name="Caminho 8903" d="M188,195h4.249v4.086H188Zm0,0" transform="translate(-188 -195)" fill="#7367f0"/>
    </clipPath>
    <clipPath id="clip-path-7">
      <path id="Caminho_8907" data-name="Caminho 8907" d="M222,161h3.749v4.618H222Zm0,0" transform="translate(-222 -161)" fill="#7367f0"/>
    </clipPath>
    <clipPath id="clip-path-8">
      <path id="Caminho_8910" data-name="Caminho 8910" d="M222,129h3.749v4.8H222Zm0,0" transform="translate(-222 -129)" fill="#7367f0"/>
    </clipPath>
    <clipPath id="clip-path-9">
      <path id="Caminho_8912" data-name="Caminho 8912" d="M0,0H4.249V4.086H0ZM0,0" transform="translate(0 0)" fill="#7367f0"/>
    </clipPath>
  </defs>
  <g id="Grupo_8069" data-name="Grupo 8069" transform="translate(0 6)">
    <g id="Grupo_7674" data-name="Grupo 7674" transform="translate(0 53.185)">
      <g id="Grupo_7618" data-name="Grupo 7618" transform="translate(0 22.279)">
        <g id="Grupo_625" data-name="Grupo 625" transform="translate(0 0)">
          <path id="Caminho_366" data-name="Caminho 366" d="M4.9-13.781a4.318,4.318,0,0,1,1.647.329,4.107,4.107,0,0,1,1.4.906l-.787.988A3.318,3.318,0,0,0,6.124-12.3a2.866,2.866,0,0,0-1.208-.274,2.788,2.788,0,0,0-2.04.823,2.682,2.682,0,0,0-.833,1.994,2.728,2.728,0,0,0,.833,2.022,2.8,2.8,0,0,0,2.04.814,3.142,3.142,0,0,0,2.241-.951l.805.9a4.794,4.794,0,0,1-1.455.961,4.156,4.156,0,0,1-1.665.357A4.1,4.1,0,0,1,1.87-6.828a3.926,3.926,0,0,1-1.2-2.918,3.814,3.814,0,0,1,1.217-2.873A4.215,4.215,0,0,1,4.9-13.781Zm0,0" transform="translate(-0.672 13.781)" fill="#fff"/>
        </g>
      </g>
      <g id="Grupo_7619" data-name="Grupo 7619" transform="translate(0 0)">
        <g id="Grupo_614" data-name="Grupo 614" transform="translate(0 0)">
          <g id="Grupo_613" data-name="Grupo 613">
            <path id="Caminho_362" data-name="Caminho 362" d="M20.4-13.2H16.215L7.634-24.681V-13.2H3.188V-31.844H7.368l8.609,11.509V-31.844H20.4Zm0,0" transform="translate(-3.188 31.844)" fill="#fff"/>
          </g>
        </g>
        <g id="Grupo_617" data-name="Grupo 617" transform="translate(20.619 0)">
          <g id="Grupo_616" data-name="Grupo 616">
            <path id="Caminho_363" data-name="Caminho 363" d="M19.739-31.844V-21.03a7.713,7.713,0,0,1-2.287,5.873,8.661,8.661,0,0,1-6.212,2.168,8.85,8.85,0,0,1-6.276-2.168A7.639,7.639,0,0,1,2.641-21.03V-31.844H7.38V-21.03a4.07,4.07,0,0,0,1.08,2.973,3.763,3.763,0,0,0,2.809,1.1A3.576,3.576,0,0,0,14-18.048a4.183,4.183,0,0,0,1.025-2.982V-31.844Zm0,0" transform="translate(-2.641 31.844)" fill="#fff"/>
          </g>
        </g>
        <g id="Grupo_620" data-name="Grupo 620" transform="translate(41.133 0)">
          <g id="Grupo_619" data-name="Grupo 619">
            <path id="Caminho_364" data-name="Caminho 364" d="M14.431-13.2,11.659-18.45H7.926V-13.2H3.188V-31.844h8.334a8.688,8.688,0,0,1,5.727,1.692,5.888,5.888,0,0,1,2.031,4.8q0,4.319-3.385,5.992L19.81-13.2Zm-6.5-8.975h3.6a3.454,3.454,0,0,0,2.4-.768,2.869,2.869,0,0,0,.86-2.241,2.734,2.734,0,0,0-.86-2.186,3.516,3.516,0,0,0-2.4-.75h-3.6Zm0,0" transform="translate(-3.188 31.844)" fill="#fff"/>
          </g>
        </g>
        <g id="Grupo_623" data-name="Grupo 623" transform="translate(58.417 0)">
          <g id="Grupo_622" data-name="Grupo 622">
            <path id="Caminho_365" data-name="Caminho 365" d="M14.156-16.639H6L4.642-13.2H-.234L7.816-31.844h4.876L20.551-13.2H15.492Zm-1.391-3.6-2.662-6.9-2.717,6.9Zm0,0" transform="translate(0.234 31.844)" fill="#fff"/>
          </g>
        </g>
        <g id="Grupo_629" data-name="Grupo 629" transform="translate(9.265 22.28)">
          <g id="Grupo_628" data-name="Grupo 628" transform="translate(0 0)">
            <path id="Caminho_367" data-name="Caminho 367" d="M1.9-12.619a4.236,4.236,0,0,1,3.028-1.162,4.244,4.244,0,0,1,3.028,1.162A3.808,3.808,0,0,1,9.189-9.728a3.852,3.852,0,0,1-1.235,2.9A4.213,4.213,0,0,1,4.926-5.657,4.205,4.205,0,0,1,1.9-6.828a3.86,3.86,0,0,1-1.226-2.9A3.816,3.816,0,0,1,1.9-12.619Zm3.046.055a2.838,2.838,0,0,0-2.049.823,2.678,2.678,0,0,0-.851,2.013,2.719,2.719,0,0,0,.851,2.022,2.828,2.828,0,0,0,2.04.833,2.753,2.753,0,0,0,2.022-.833A2.737,2.737,0,0,0,7.8-9.728a2.7,2.7,0,0,0-.842-2.013A2.759,2.759,0,0,0,4.944-12.565Zm0,0" transform="translate(-0.672 13.781)" fill="#fff"/>
          </g>
        </g>
        <g id="Grupo_632" data-name="Grupo 632" transform="translate(23.672 22.307)">
          <g id="Grupo_631" data-name="Grupo 631">
            <path id="Caminho_368" data-name="Caminho 368" d="M8.768-5.693H7.441L3.16-11.456v5.764H1.8v-8.041H3.133L7.441-7.953v-5.782H8.768Zm0,0" transform="translate(-1.797 13.734)" fill="#fff"/>
          </g>
        </g>
        <g id="Grupo_635" data-name="Grupo 635" transform="translate(37.213 22.307)">
          <g id="Grupo_634" data-name="Grupo 634">
            <path id="Caminho_369" data-name="Caminho 369" d="M8.768-5.693H7.441L3.16-11.456v5.764H1.8v-8.041H3.133L7.441-7.953v-5.782H8.768Zm0,0" transform="translate(-1.797 13.734)" fill="#fff"/>
          </g>
        </g>
        <g id="Grupo_638" data-name="Grupo 638" transform="translate(50.755 22.307)">
          <g id="Grupo_637" data-name="Grupo 637">
            <path id="Caminho_370" data-name="Caminho 370" d="M7.542-12.508H3.16v2.168H7.085v1.217H3.16V-6.91H7.679v1.217H1.8v-8.041H7.542Zm0,0" transform="translate(-1.797 13.734)" fill="#fff"/>
          </g>
        </g>
        <g id="Grupo_641" data-name="Grupo 641" transform="translate(62.076 22.28)">
          <g id="Grupo_640" data-name="Grupo 640" transform="translate(0 0)">
            <path id="Caminho_371" data-name="Caminho 371" d="M4.9-13.781a4.318,4.318,0,0,1,1.647.329,4.107,4.107,0,0,1,1.4.906l-.787.988A3.318,3.318,0,0,0,6.124-12.3a2.866,2.866,0,0,0-1.208-.274,2.788,2.788,0,0,0-2.04.823,2.682,2.682,0,0,0-.833,1.994,2.728,2.728,0,0,0,.833,2.022,2.8,2.8,0,0,0,2.04.814,3.142,3.142,0,0,0,2.241-.951l.805.9a4.794,4.794,0,0,1-1.455.961,4.156,4.156,0,0,1-1.665.357A4.1,4.1,0,0,1,1.87-6.828a3.926,3.926,0,0,1-1.2-2.918,3.814,3.814,0,0,1,1.217-2.873A4.215,4.215,0,0,1,4.9-13.781Zm0,0" transform="translate(-0.672 13.781)" fill="#fff"/>
          </g>
        </g>
        <g id="Grupo_644" data-name="Grupo 644" transform="translate(74.234 22.307)">
          <g id="Grupo_643" data-name="Grupo 643">
            <path id="Caminho_372" data-name="Caminho 372" d="M6.612-12.508H4.069v6.816H2.715v-6.816H.172v-1.226H6.612Zm0,0" transform="translate(-0.172 13.734)" fill="#fff"/>
          </g>
        </g>
      </g>
    </g>
    <g id="Grupo_7675" data-name="Grupo 7675" transform="translate(16.415 0)">
      <g id="Grupo_7662" data-name="Grupo 7662" transform="translate(0)">
        <g id="Grupo_7588" data-name="Grupo 7588" transform="translate(0)">
          <g transform="matrix(1, 0, 0, 1, -16.41, -6)" filter="url(#Subtração_6)">
            <path id="Subtração_6-2" data-name="Subtração 6" d="M16.985,47.487a4.775,4.775,0,0,1-4.636-6.03,4.74,4.74,0,0,1,2.219-2.89,4.894,4.894,0,0,1,2.448-.662,4.632,4.632,0,0,1,1.2.157,4.91,4.91,0,0,1,2.918,2.244,5.8,5.8,0,0,1,.591,1.685c.093,0,.19.006.294.012s.24.015.379.015a19.738,19.738,0,0,0,9.74-2.583,20.468,20.468,0,0,0,3.554-2.616,19.827,19.827,0,0,0,2.9-3.333l-4.267-2.5a14.321,14.321,0,0,0,1.39-2.448l5.543,3.26a1.4,1.4,0,0,1,.654.85,1.381,1.381,0,0,1-.147,1.059,23.312,23.312,0,0,1-3.608,4.621,23.047,23.047,0,0,1-4.618,3.548,22.2,22.2,0,0,1-5.286,2.179,22.6,22.6,0,0,1-5.855.769c-.287,0-.646,0-1.066-.03h-.057a4.773,4.773,0,0,1-4.291,2.69Zm-.014-6.77a1.893,1.893,0,0,0-.971.263,1.974,1.974,0,0,0,.477,3.622,1.847,1.847,0,0,0,.5.068,2.007,2.007,0,0,0,.988-.265,1.939,1.939,0,0,0,.927-1.178,1.986,1.986,0,0,0-1.919-2.509ZM4.111,34.122h0a1.383,1.383,0,0,1-1.219-.72H2.863A23.756,23.756,0,0,1,.731,28.041a22.353,22.353,0,0,1,.308-12.406,22.6,22.6,0,0,1,2.554-5.39A4.645,4.645,0,0,1,2.779,7.55a4.649,4.649,0,0,1,1.4-3.368,4.648,4.648,0,0,1,3.367-1.4,4.684,4.684,0,0,1,3.4,1.4,4.787,4.787,0,0,1-3.4,8.167,4.692,4.692,0,0,1-1.74-.336,19.444,19.444,0,0,0-2.077,4.463A19.793,19.793,0,0,0,2.806,22.4a19.12,19.12,0,0,0,.646,4.939,20.611,20.611,0,0,0,1.236,3.425l4.6-2.559a14.545,14.545,0,0,0,1.325,2.474L4.8,33.936A1.366,1.366,0,0,1,4.111,34.122ZM7.55,5.586a1.878,1.878,0,0,0-1.374.589A1.876,1.876,0,0,0,5.587,7.55a1.973,1.973,0,0,0,.589,1.4,1.878,1.878,0,0,0,1.374.589A2.011,2.011,0,0,0,9.544,7.55a1.879,1.879,0,0,0-.589-1.375A1.977,1.977,0,0,0,7.55,5.586ZM42.722,21.77a5.014,5.014,0,0,1-2.415-.635,4.917,4.917,0,0,1-2.245-2.918,4.746,4.746,0,0,1,.5-3.621v-.028a4.355,4.355,0,0,1,1.151-1.347A19.681,19.681,0,0,0,32.953,5.9a19.364,19.364,0,0,0-4.308-2.064,19.873,19.873,0,0,0-4.813-.969V8.126c-.4-.035-.816-.052-1.225-.052A14.444,14.444,0,0,0,21,8.164V1.4A1.406,1.406,0,0,1,22.4,0,22.465,22.465,0,0,1,42.357,12.209c.135-.011.271-.017.4-.017a4.458,4.458,0,0,1,2.317.634h.029a4.806,4.806,0,0,1,2.217,2.921,4.8,4.8,0,0,1-3.4,5.865A4.667,4.667,0,0,1,42.722,21.77ZM42.707,15a2.028,2.028,0,0,0-.519.068,1.975,1.975,0,0,0-1.4,2.413,2,2,0,0,0,2.443,1.4A1.99,1.99,0,0,0,44.6,16.477a1.941,1.941,0,0,0-.925-1.208A1.888,1.888,0,0,0,42.707,15Z" transform="translate(16.41 6)" fill="url(#linear-gradient)"/>
          </g>
        </g>
      </g>
      <g id="Grupo_7663" data-name="Grupo 7663" transform="translate(12.365 11.495)">
        <g id="Simple_Data_Connection_Technology_Logo" data-name="Simple Data Connection Technology Logo" transform="translate(0 0)">
          <path id="Caminho_8881" data-name="Caminho 8881" d="M167.139,131.228v-4.157a1.029,1.029,0,0,1-.359-.126,1.006,1.006,0,0,1-.309-.273q-.942.513-1.895,1.062t-1.869,1.107a1.026,1.026,0,0,1,.012.777l3.607,2.079A1.22,1.22,0,0,1,167.139,131.228Zm0,0" transform="translate(-157.181 -121.49)" fill="#7367f0" fill-rule="evenodd"/>
          <path id="Caminho_8882" data-name="Caminho 8882" d="M188.391,127.074v4.157a1.219,1.219,0,0,1,.453.153,1.231,1.231,0,0,1,.36.316l3.606-2.079a1.027,1.027,0,0,1,.012-.776q-.916-.557-1.869-1.107t-1.894-1.062A1.035,1.035,0,0,1,188.391,127.074Zm0,0" transform="translate(-178.121 -121.494)" fill="#7367f0" fill-rule="evenodd"/>
          <path id="Caminho_8883" data-name="Caminho 8883" d="M162.418,146.16l-3.606-2.078a1.029,1.029,0,0,1-.68.378q-.026,1.072-.026,2.17t.026,2.168a1.035,1.035,0,0,1,.39.131,1.023,1.023,0,0,1,.29.248l3.606-2.079A1.215,1.215,0,0,1,162.418,146.16Zm0,0" transform="translate(-153.429 -135.684)" fill="#7367f0" fill-rule="evenodd"/>
          <path id="Caminho_8884" data-name="Caminho 8884" d="M166.329,161.871l-3.607,2.079a1.026,1.026,0,0,1-.011.776q.916.557,1.869,1.107t1.894,1.062a1.032,1.032,0,0,1,.668-.4V162.34a1.227,1.227,0,0,1-.814-.469Zm0,0" transform="translate(-157.184 -150.187)" fill="#7367f0" fill-rule="evenodd"/>
          <path id="Caminho_8885" data-name="Caminho 8885" d="M188.391,162.336v4.158a1.039,1.039,0,0,1,.668.4q.942-.512,1.894-1.061l.009,0q.948-.547,1.86-1.1a1.028,1.028,0,0,1-.012-.778l-3.606-2.079A1.216,1.216,0,0,1,188.391,162.336Zm0,0" transform="translate(-178.121 -150.184)" fill="#7367f0" fill-rule="evenodd"/>
          <path id="Caminho_8886" data-name="Caminho 8886" d="M193.637,147.1l3.606,2.079a1.033,1.033,0,0,1,.681-.379q.026-1.07.026-2.168t-.026-2.169a1.033,1.033,0,0,1-.681-.379l-3.606,2.079A1.213,1.213,0,0,1,193.637,147.1Zm0,0" transform="translate(-182.398 -135.684)" fill="#7367f0" fill-rule="evenodd"/>
          <g id="Grupo_7607" data-name="Grupo 7607" transform="translate(10.198)" clip-path="url(#clip-path)">
            <path id="Caminho_8887" data-name="Caminho 8887" d="M189.063,102.576c1.171-.6,2.322-1.16,3.44-1.669a.826.826,0,0,1-.017-.532c-1.17-.646-2.341-1.23-3.5-1.75a.961.961,0,0,1-.6.33v3.213a1.043,1.043,0,0,1,.675.408Zm0,0" transform="translate(-188.315 -98.624)" fill="#7367f0" fill-rule="evenodd"/>
          </g>
          <g id="Grupo_7608" data-name="Grupo 7608" transform="translate(5.765)" clip-path="url(#clip-path-2)">
            <path id="Caminho_8889" data-name="Caminho 8889" d="M168.534,102.166V98.952a.957.957,0,0,1-.6-.331c-1.16.521-2.331,1.1-3.5,1.751a.824.824,0,0,1-.017.532c1.119.509,2.269,1.067,3.44,1.67A1.03,1.03,0,0,1,168.534,102.166Zm0,0" transform="translate(-164.341 -98.621)" fill="#7367f0" fill-rule="evenodd"/>
          </g>
          <path id="Caminho_8891" data-name="Caminho 8891" d="M163,114.123c-1.175-.6-2.329-1.164-3.451-1.674a1.04,1.04,0,0,1-.639.368c-.118,1.225-.211,2.5-.273,3.82a1.042,1.042,0,0,1,.588.343q.919-.559,1.876-1.112t1.9-1.066A1.028,1.028,0,0,1,163,114.123Zm0,0" transform="translate(-153.866 -109.895)" fill="#7367f0" fill-rule="evenodd"/>
          <path id="Caminho_8892" data-name="Caminho 8892" d="M141.6,117.128c.063-1.314.154-2.588.272-3.81a.824.824,0,0,1-.471-.252c-1.144.687-2.236,1.407-3.269,2.15a.956.956,0,0,1-.012.685l2.787,1.606A1.034,1.034,0,0,1,141.6,117.128Zm0,0" transform="translate(-137.137 -110.398)" fill="#7367f0" fill-rule="evenodd"/>
          <g id="Grupo_7609" data-name="Grupo 7609" transform="translate(0 5.612)" clip-path="url(#clip-path-3)">
            <path id="Caminho_8893" data-name="Caminho 8893" d="M136.45,131.477l-2.787-1.606a.958.958,0,0,1-.587.353c-.129,1.264-.207,2.567-.232,3.9a.829.829,0,0,1,.454.281c1-.713,2.06-1.429,3.168-2.14A1.03,1.03,0,0,1,136.45,131.477Zm0,0" transform="translate(-132.835 -129.71)" fill="#7367f0" fill-rule="evenodd"/>
          </g>
          <path id="Caminho_8895" data-name="Caminho 8895" d="M139.333,144.262q-1.668,1.07-3.177,2.146a1.032,1.032,0,0,1,0,.736c1,.714,2.065,1.433,3.178,2.147a1.033,1.033,0,0,1,.591-.336q-.025-1.075-.026-2.178t.027-2.178a1.039,1.039,0,0,1-.593-.336Zm0,0" transform="translate(-135.535 -135.831)" fill="#7367f0" fill-rule="evenodd"/>
          <g id="Grupo_7610" data-name="Grupo 7610" transform="translate(0 11.523)" clip-path="url(#clip-path-4)">
            <path id="Caminho_8896" data-name="Caminho 8896" d="M136.466,163.464q-1.664-1.067-3.169-2.14a.819.819,0,0,1-.453.281c.025,1.334.1,2.638.232,3.9a.957.957,0,0,1,.587.352l2.787-1.606A1.027,1.027,0,0,1,136.466,163.464Zm0,0" transform="translate(-132.835 -161.264)" fill="#7367f0" fill-rule="evenodd"/>
          </g>
          <path id="Caminho_8898" data-name="Caminho 8898" d="M140.908,178.637l-2.787,1.606a.956.956,0,0,1,.012.683q1.548,1.114,3.269,2.151a.825.825,0,0,1,.47-.252c-.118-1.222-.209-2.5-.272-3.809a1.016,1.016,0,0,1-.4-.132A1.028,1.028,0,0,1,140.908,178.637Zm0,0" transform="translate(-137.137 -163.856)" fill="#7367f0" fill-rule="evenodd"/>
          <path id="Caminho_8899" data-name="Caminho 8899" d="M158.641,179.109c.063,1.318.155,2.6.273,3.821a1.016,1.016,0,0,1,.354.125,1.031,1.031,0,0,1,.285.243c1.122-.51,2.276-1.069,3.451-1.674a1.024,1.024,0,0,1,0-.679q-.946-.515-1.9-1.067t-1.877-1.112A1.032,1.032,0,0,1,158.641,179.109Zm0,0" transform="translate(-153.866 -163.961)" fill="#7367f0" fill-rule="evenodd"/>
          <g id="Grupo_7611" data-name="Grupo 7611" transform="translate(5.765 17.803)" clip-path="url(#clip-path-5)">
            <path id="Caminho_8900" data-name="Caminho 8900" d="M167.858,195.727c-1.171.6-2.322,1.16-3.44,1.67a.826.826,0,0,1,.017.532c1.17.645,2.341,1.229,3.5,1.75a.959.959,0,0,1,.6-.331v-3.212a1.013,1.013,0,0,1-.36-.126A1.027,1.027,0,0,1,167.858,195.727Zm0,0" transform="translate(-164.341 -195.593)" fill="#7367f0" fill-rule="evenodd"/>
          </g>
          <g id="Grupo_7612" data-name="Grupo 7612" transform="translate(10.198 17.803)" clip-path="url(#clip-path-6)">
            <path id="Caminho_8902" data-name="Caminho 8902" d="M188.391,196.135v3.213a.957.957,0,0,1,.6.331c1.16-.521,2.331-1.1,3.5-1.751a.826.826,0,0,1,.017-.532c-1.119-.509-2.269-1.067-3.44-1.67A1.032,1.032,0,0,1,188.391,196.135Zm0,0" transform="translate(-188.319 -195.593)" fill="#7367f0" fill-rule="evenodd"/>
          </g>
          <path id="Caminho_8904" data-name="Caminho 8904" d="M192.809,181.619c1.175.605,2.33,1.164,3.451,1.674a1.029,1.029,0,0,1,.639-.367c.118-1.225.21-2.5.273-3.821a1.009,1.009,0,0,1-.318-.119,1.039,1.039,0,0,1-.27-.224q-.919.56-1.877,1.113l-.008,0q-.953.549-1.895,1.061A1.019,1.019,0,0,1,192.809,181.619Zm0,0" transform="translate(-181.719 -163.958)" fill="#7367f0" fill-rule="evenodd"/>
          <path id="Caminho_8905" data-name="Caminho 8905" d="M216.932,179.013c-.063,1.314-.154,2.588-.272,3.809a.823.823,0,0,1,.471.252q1.717-1.033,3.268-2.151a.955.955,0,0,1,.012-.683l-2.787-1.607A1.031,1.031,0,0,1,216.932,179.013Zm0,0" transform="translate(-201.168 -163.853)" fill="#7367f0" fill-rule="evenodd"/>
          <g id="Grupo_7613" data-name="Grupo 7613" transform="translate(16.479 11.523)" clip-path="url(#clip-path-7)">
            <path id="Caminho_8906" data-name="Caminho 8906" d="M222.654,164.252l2.787,1.606a.957.957,0,0,1,.587-.352c.128-1.263.207-2.567.232-3.9a.827.827,0,0,1-.454-.281c-1,.713-2.06,1.429-3.168,2.139A1.03,1.03,0,0,1,222.654,164.252Zm0,0" transform="translate(-222.519 -161.264)" fill="#7367f0" fill-rule="evenodd"/>
          </g>
          <path id="Caminho_8908" data-name="Caminho 8908" d="M219.119,149.291q1.668-1.07,3.177-2.147a1.028,1.028,0,0,1,0-.735q-1.506-1.073-3.178-2.147a1.029,1.029,0,0,1-.591.335q.026,1.076.026,2.179t-.027,2.178a1.038,1.038,0,0,1,.592.336Zm0,0" transform="translate(-202.69 -135.831)" fill="#7367f0" fill-rule="evenodd"/>
          <g id="Grupo_7614" data-name="Grupo 7614" transform="translate(16.479 5.612)" clip-path="url(#clip-path-8)">
            <path id="Caminho_8909" data-name="Caminho 8909" d="M222.637,132.266q1.662,1.067,3.169,2.139a.822.822,0,0,1,.453-.28c-.025-1.334-.1-2.638-.232-3.9a.958.958,0,0,1-.587-.353l-2.787,1.607A1.031,1.031,0,0,1,222.637,132.266Zm0,0" transform="translate(-222.519 -129.71)" fill="#7367f0" fill-rule="evenodd"/>
          </g>
        </g>
        <g id="Grupo_7615" data-name="Grupo 7615" transform="translate(16.011 7.442) rotate(-120)" clip-path="url(#clip-path-9)">
          <path id="Caminho_8911" data-name="Caminho 8911" d="M0,.408V3.621a.956.956,0,0,1,.6.331c1.16-.521,2.331-1.1,3.5-1.751a.826.826,0,0,1,.017-.532C3,1.161,1.846.6.675,0A1.032,1.032,0,0,1,0,.408Zm0,0" transform="translate(0.072 0.134)" fill="#7367f0" fill-rule="evenodd"/>
        </g>
        <path id="Caminho_8913" data-name="Caminho 8913" d="M0,2.857c1.175.606,2.33,1.164,3.451,1.674a1.029,1.029,0,0,1,.639-.367c.118-1.225.21-2.5.273-3.821A1.008,1.008,0,0,1,4.05.224,1.039,1.039,0,0,1,3.78,0Q2.861.561,1.9,1.113l-.008,0Q.942,1.666,0,2.178A1.019,1.019,0,0,1,0,2.857Zm0,0" transform="translate(12.97 8.173) rotate(-120)" fill="#7367f0" fill-rule="evenodd"/>
      </g>
    </g>
  </g>
</svg>
